<svg xmlns="http://www.w3.org/2000/svg" xmlns:xlink="http://www.w3.org/1999/xlink" version="1.1" width="2380" height="800" style="width: 2380px; height: 800px; background: #ffffff" viewBox="0 0 2380 800"><style id="v-3" type="text/css">        .joint-element .scalable * {            vector-effect: non-scaling-stroke;        }    </style><defs joint-selector="defs"><marker id="v-21252848929" orient="auto" overflow="visible" markerUnits="userSpaceOnUse"><path id="v-95" stroke="#444444" fill="#444444" transform="rotate(180)" d="M 20 -10 0 0 20 10 Z"></path></marker></defs><g joint-selector="layers"  transform="matrix(1,0,0,1,0,0)"><g  style="pointer-events: none;"></g><g ></g><g  style="user-select: none;"><!--z-index:1--><!--z-index:2--><!--z-index:3--><!--z-index:4--><!--z-index:5--><!--z-index:6--><!--z-index:7--><g   id="j_17"  transform="translate(20,756)"><g id="v-176"><text  id="v-177" font-size="24px" xml:space="preserve" y="0.8em" font-weight="normal" text-anchor="start" fill="#444444" pointer-events="none" display="block" font-family="Tahoma, Verdana, Helvetica, Arial"><tspan dy="0"  display="none">четверг, 12 марта 2026 г. в 00:06 Москва, стандартное время</tspan></text></g></g><!--z-index:8--><g   id="j_16"  transform="translate(20,710)"><g id="v-174"><text  id="v-175" font-size="36px" xml:space="preserve" y="0.8em" font-weight="normal" text-anchor="start" fill="#444444" pointer-events="none" display="block" font-family="Tahoma, Verdana, Helvetica, Arial"><tspan dy="0"  display="none">System Context View: Система бронирования отелей</tspan></text></g></g><!--z-index:9--><g   id="j_18"  transform="translate(200,159)" style=""><g  id="v-181" style="opacity: 1;"><rect  x="0" y="160" width="400" height="240" rx="70" id="v-183" stroke-width="2" pointer-events="visiblePainted" fill="#08427b" stroke="#073b6f" stroke-dasharray="" style="fill: rgb(8, 66, 123); stroke: rgb(7, 59, 111);"></rect><circle  cx="200" cy="88.88888888888889" r="88.88888888888889" id="v-182" stroke-width="2" pointer-events="visiblePainted" fill="#08427b" stroke="#073b6f" stroke-dasharray="" style="fill: rgb(8, 66, 123); stroke: rgb(7, 59, 111);"></circle><line  x1="80" y1="266.6666666666667" x2="80" y2="400" id="v-189" stroke="#073b6f" stroke-width="1" stroke-dasharray="" style="stroke: rgb(7, 59, 111);"></line><line  x1="320" y1="266.6666666666667" x2="320" y2="400" id="v-190" stroke="#073b6f" stroke-width="1" stroke-dasharray="" style="stroke: rgb(7, 59, 111);"></line><text  id="v-184" font-size="33.599999999999994px" xml:space="preserve" y="216.9" font-weight="bold" text-anchor="middle" pointer-events="visible" font-family="Tahoma, Verdana, Helvetica, Arial" fill="#ffffff" dominant-baseline="hanging" transform="matrix(1,0,0,1,200,0)" style="fill: rgb(255, 255, 255);"><tspan dy="0" >Пользователь</tspan></text><text  id="v-185" font-size="16.799999999999997px" xml:space="preserve" y="258.5" text-anchor="middle" font-family="Tahoma, Verdana, Helvetica, Arial" fill="#ffffff" dominant-baseline="hanging" transform="matrix(1,0,0,1,200,0)" style="display: block; fill: rgb(255, 255, 255);"><tspan dy="0" >[Person]</tspan></text><text  id="v-186" font-size="24px" xml:space="preserve" y="290.3" text-anchor="middle" font-family="Tahoma, Verdana, Helvetica, Arial" fill="#ffffff" dominant-baseline="hanging" transform="matrix(1,0,0,1,200,0)" style="display: block; fill: rgb(255, 255, 255);"><tspan dy="0" >Пользователь системы</tspan><tspan dy="1.2em" x="0" >бронирования отелей</tspan></text><g  id="v-187" font-weight="normal" text-anchor="middle" color="#ffffff" transform="matrix(1,0,0,1,197.5,368)" style="fill: rgb(255, 255, 255);" display="none"><g ></g><g ></g><g ></g><g ></g></g><image  id="v-188"></image></g></g><!--z-index:10--><g   id="j_19"  transform="translate(1730,209)" style=""><g  id="v-194" style="opacity: 1;"><rect  id="v-195" rx="20" ry="20" stroke-width="2" pointer-events="visiblePainted" fill="#1168bd" stroke="#0f5eaa" stroke-dasharray="" width="450" height="300" style="fill: rgb(17, 104, 189); stroke: rgb(15, 94, 170);"></rect><text  id="v-196" font-size="33.599999999999994px" xml:space="preserve" y="86.9" font-weight="bold" text-anchor="middle" pointer-events="visible" font-family="Tahoma, Verdana, Helvetica, Arial" fill="#ffffff" dominant-baseline="hanging" transform="matrix(1,0,0,1,225,0)" style="fill: rgb(255, 255, 255);"><tspan dy="0" >Email Service</tspan></text><text  id="v-197" font-size="16.799999999999997px" xml:space="preserve" y="128.5" text-anchor="middle" font-family="Tahoma, Verdana, Helvetica, Arial" fill="#ffffff" dominant-baseline="hanging" transform="matrix(1,0,0,1,225,0)" style="display: block; fill: rgb(255, 255, 255);"><tspan dy="0" >[Software System]</tspan></text><text  id="v-198" font-size="24px" xml:space="preserve" y="160.3" text-anchor="middle" font-family="Tahoma, Verdana, Helvetica, Arial" fill="#ffffff" dominant-baseline="hanging" transform="matrix(1,0,0,1,225,0)" style="display: block; fill: rgb(255, 255, 255);"><tspan dy="0" >Внешний сервис отправки email</tspan><tspan dy="1.2em" x="0" >уведомлений</tspan></text><g  id="v-199" color="#ffffff" transform="matrix(1,0,0,1,222.5,268)" style="fill: rgb(255, 255, 255);" display="none"><g ></g><g ></g><g ></g><g ></g></g><image  id="v-200"></image></g></g><!--z-index:11--><g   id="j_20"  transform="translate(940,209)" style=""><g  id="v-207" style="opacity: 1;"><rect  id="v-208" rx="20" ry="20" stroke-width="2" pointer-events="visiblePainted" fill="#1168bd" stroke="#0f5eaa" stroke-dasharray="" width="450" height="300" style="fill: rgb(17, 104, 189); stroke: rgb(15, 94, 170);"></rect><text  id="v-209" font-size="33.599999999999994px" xml:space="preserve" y="66.74000000000001" font-weight="bold" text-anchor="middle" pointer-events="visible" font-family="Tahoma, Verdana, Helvetica, Arial" fill="#ffffff" dominant-baseline="hanging" transform="matrix(1,0,0,1,225,0)" style="fill: rgb(255, 255, 255);"><tspan dy="0" >Система бронирования</tspan><tspan dy="1.2em" x="0" >отелей</tspan></text><text  id="v-210" font-size="16.799999999999997px" xml:space="preserve" y="148.66" text-anchor="middle" font-family="Tahoma, Verdana, Helvetica, Arial" fill="#ffffff" dominant-baseline="hanging" transform="matrix(1,0,0,1,225,0)" style="display: block; fill: rgb(255, 255, 255);"><tspan dy="0" >[Software System]</tspan></text><text  id="v-211" font-size="24px" xml:space="preserve" y="180.45999999999998" text-anchor="middle" font-family="Tahoma, Verdana, Helvetica, Arial" fill="#ffffff" dominant-baseline="hanging" transform="matrix(1,0,0,1,225,0)" style="display: block; fill: rgb(255, 255, 255);"><tspan dy="0" >Система поиска отелей и</tspan><tspan dy="1.2em" x="0" >управления бронированиями</tspan></text><g  id="v-212" color="#ffffff" transform="matrix(1,0,0,1,210,268)" style="fill: rgb(255, 255, 255);" display="none"><g  transform="translate(5 0)"><svg xmlns="http://www.w3.org/2000/svg" width="20" height="20" fill="currentColor" viewBox="0 0 16 16"><path fill-rule="evenodd" d="M6.5 12a5.5 5.5 0 1 0 0-11 5.5 5.5 0 0 0 0 11zM13 6.5a6.5 6.5 0 1 1-13 0 6.5 6.5 0 0 1 13 0z"></path><path d="M10.344 11.742c.03.04.062.078.098.115l3.85 3.85a1 1 0 0 0 1.415-1.414l-3.85-3.85a1.007 1.007 0 0 0-.115-.1 6.538 6.538 0 0 1-1.398 1.4z"></path><path fill-rule="evenodd" d="M6.5 3a.5.5 0 0 1 .5.5V6h2.5a.5.5 0 0 1 0 1H7v2.5a.5.5 0 0 1-1 0V7H3.5a.5.5 0 0 1 0-1H6V3.5a.5.5 0 0 1 .5-.5z"></path></svg></g><g ></g><g ></g><g ></g></g><image  id="v-213"></image></g></g><!--z-index:12--><g   id="j_21"  style="opacity: 1;"><path fill="none" cursor="pointer" stroke="transparent" stroke-linecap="round" joint-selector="wrapper" id="v-228" stroke-width="10" stroke-linejoin="round" d="M 1390 359 L 1730 359" style="stroke-width: 10px;"></path><path fill="none" pointer-events="none" joint-selector="line" id="v-227" stroke="#444444" stroke-width="2" stroke-linejoin="round" stroke-dasharray="8 8" d="M 1390 359 L 1730 359" marker-end="url(#v-21252848929)"></path><g id="v-217" ><g id="v-218"  label-idx="0" cursor="move" transform="matrix(1,0,0,1,1560,345.6000061035156)" style="cursor: default;"><rect joint-selector="rect" id="v-222" fill="#ffffff" rx="3" ry="3" x="-82.54838562011719" y="-45.240657806396484" width="165.09677124023438" height="86.06783294677734" pointer-events="none"  style="display: block;"></rect><text joint-selector="text" id="v-221" font-size="24px" xml:space="preserve" fill="#444444" text-anchor="middle" pointer-events="none" font-family="Tahoma, Verdana, Helvetica, Arial" font-weight="normal"  style="display: block;"><tspan dy="-0.8999999999999999em" >Отправляет</tspan><tspan dy="1.2em" x="0" >уведомления о</tspan><tspan dy="1.2em" x="0" >бронировании</tspan></text></g><g id="v-219"  label-idx="1" cursor="move" transform="matrix(1,0,0,1,1560,404.79998779296875)" style="cursor: default;"><rect joint-selector="rect" id="v-224" fill="#ffffff" rx="3" ry="3" x="-42.5439567565918" y="-11.508462905883789" width="85.0879135131836" height="20.094562530517578"  pointer-events="none" style="display: block;"></rect><text joint-selector="text" id="v-223" font-size="16.799999999999997px" xml:space="preserve" fill="#444444" text-anchor="middle" pointer-events="none" font-family="Tahoma, Verdana, Helvetica, Arial" font-weight="normal"  style="display: block;"><tspan dy="0.3em" >[SMTP API]</tspan></text></g><g id="v-220"  label-idx="2" cursor="move" transform="matrix(1,0,0,1,1550,413.20001220703125)" style="cursor: default;"><rect joint-selector="rect" id="v-226" fill="#ffffff" rx="3" ry="3" x="0" y="0" width="0" height="0"  display="none"></rect><text joint-selector="text" id="v-225" fill="#000000" font-size="14" text-anchor="middle" text-vertical-anchor="middle" pointer-events="none"></text></g></g></g><!--z-index:13--><g   id="j_22"  style="opacity: 1;"><path fill="none" cursor="pointer" stroke="transparent" stroke-linecap="round" joint-selector="wrapper" id="v-243" stroke-width="10" stroke-linejoin="round" d="M 600 359 L 940 359" style="stroke-width: 10px;"></path><path fill="none" pointer-events="none" joint-selector="line" id="v-242" stroke="#444444" stroke-width="2" stroke-linejoin="round" stroke-dasharray="8 8" d="M 600 359 L 940 359" marker-end="url(#v-21252848929)"></path><g id="v-232" ><g id="v-233"  label-idx="0" cursor="move" transform="matrix(1,0,0,1,770,345.6000061035156)" style="cursor: default;"><rect joint-selector="rect" id="v-237" fill="#ffffff" rx="3" ry="3" x="-62.89708709716797" y="-30.840660095214844" width="125.79417419433594" height="57.26783752441406" pointer-events="none"  style="display: block;"></rect><text joint-selector="text" id="v-236" font-size="24px" xml:space="preserve" fill="#444444" text-anchor="middle" pointer-events="none" font-family="Tahoma, Verdana, Helvetica, Arial" font-weight="normal"  style="display: block;"><tspan dy="-0.3em" >Использует</tspan><tspan dy="1.2em" x="0" >систему</tspan></text></g><g id="v-234"  label-idx="1" cursor="move" transform="matrix(1,0,0,1,770,390.3999938964844)" style="cursor: default;"><rect joint-selector="rect" id="v-239" fill="#ffffff" rx="3" ry="3" x="-30.81597137451172" y="-11.508462905883789" width="61.63194274902344" height="20.094562530517578"  pointer-events="none" style="display: block;"></rect><text joint-selector="text" id="v-238" font-size="16.799999999999997px" xml:space="preserve" fill="#444444" text-anchor="middle" pointer-events="none" font-family="Tahoma, Verdana, Helvetica, Arial" font-weight="normal"  style="display: block;"><tspan dy="0.3em" >[HTTPS]</tspan></text></g><g id="v-235"  label-idx="2" cursor="move" transform="matrix(1,0,0,1,760,398.79998779296875)" style="cursor: default;"><rect joint-selector="rect" id="v-241" fill="#ffffff" rx="3" ry="3" x="0" y="0" width="0" height="0"  display="none"></rect><text joint-selector="text" id="v-240" fill="#000000" font-size="14" text-anchor="middle" text-vertical-anchor="middle" pointer-events="none"></text></g></g></g><!--z-index:14--><!--z-index:15--><!--z-index:16--><!--z-index:17--><!--z-index:18--><!--z-index:19--><!--z-index:20--><!--z-index:21--><!--z-index:22--><!--z-index:23--><!--z-index:24--><!--z-index:25--><!--z-index:26--><!--z-index:27--><!--z-index:28--><!--z-index:29--><!--z-index:30--></g><g  style="user-select: none;"></g><g ></g><g  display="none"></g></g></svg>